<?xml version="1.0" encoding="UTF-8" standalone="no"?>
<!-- Created with Inkscape (http://www.inkscape.org/) -->

<svg
   xmlns:dc="http://purl.org/dc/elements/1.1/"
   xmlns:cc="http://creativecommons.org/ns#"
   xmlns:rdf="http://www.w3.org/1999/02/22-rdf-syntax-ns#"
   xmlns:svg="http://www.w3.org/2000/svg"
   xmlns="http://www.w3.org/2000/svg"
   xmlns:sodipodi="http://sodipodi.sourceforge.net/DTD/sodipodi-0.dtd"
   xmlns:inkscape="http://www.inkscape.org/namespaces/inkscape"
   width="60mm"
   height="35mm"
   viewBox="0 0 212.59842 124.01574"
   id="svg4842"
   version="1.1"
   inkscape:version="0.91 r13725"
   sodipodi:docname="logo.svg">
  <defs
     id="defs4844" />
  <sodipodi:namedview
     id="base"
     pagecolor="#ffffff"
     bordercolor="#666666"
     borderopacity="1.0"
     inkscape:pageopacity="0.0"
     inkscape:pageshadow="2"
     inkscape:zoom="0.98994949"
     inkscape:cx="120.89988"
     inkscape:cy="283.62044"
     inkscape:document-units="px"
     inkscape:current-layer="layer1"
     showgrid="false"
     inkscape:window-width="1842"
     inkscape:window-height="1043"
     inkscape:window-x="78"
     inkscape:window-y="0"
     inkscape:window-maximized="1" />
  <metadata
     id="metadata4847">
    <rdf:RDF>
      <cc:Work
         rdf:about="">
        <dc:format>image/svg+xml</dc:format>
        <dc:type
           rdf:resource="http://purl.org/dc/dcmitype/StillImage" />
        <dc:title></dc:title>
      </cc:Work>
    </rdf:RDF>
  </metadata>
  <g
     inkscape:label="Ebene 1"
     inkscape:groupmode="layer"
     id="layer1"
     transform="translate(0,-928.21674)">
    <g
       id="g5461"
       transform="matrix(0.53907426,-0.17569011,0.17569011,0.53907426,-110.29981,472.51856)">
      <g
         style="fill:#0a0a87;fill-opacity:1;stroke:#0a0a87;stroke-opacity:1"
         id="g4715"
         transform="matrix(-0.01465661,-0.99989271,0.99989271,-0.01465661,-868.91904,1202.9385)">
        <path
           style="fill:#0a0a87;fill-opacity:1;fill-rule:evenodd;stroke:#0a0a87;stroke-width:1px;stroke-linecap:butt;stroke-linejoin:miter;stroke-opacity:1"
           d="m 284.19007,893.0928 14.84296,-5.44874 9.3567,11.72396 -8.60516,13.26473 z"
           id="path4717"
           inkscape:connector-curvature="0" />
        <path
           sodipodi:open="true"
           style="fill:#0a0a87;fill-opacity:1;stroke:#0a0a87;stroke-width:6.67454052;stroke-linecap:butt;stroke-linejoin:round;stroke-miterlimit:4;stroke-dasharray:none;stroke-opacity:1"
           id="path4719"
           sodipodi:type="arc"
           sodipodi:cx="-978.19482"
           sodipodi:cy="23.256214"
           sodipodi:rx="77.869637"
           sodipodi:ry="77.869637"
           sodipodi:start="0.86940326"
           sodipodi:end="1.356307"
           d="m -927.94691,82.744256 a 77.869637,77.869637 0 0 1 -33.67348,16.597229"
           transform="matrix(-0.21320253,-0.97700803,0.97700803,-0.21320253,0,0)" />
      </g>
      <g
         style="fill:#0a0a87;fill-opacity:1;stroke:#0a0a87;stroke-opacity:1"
         transform="matrix(0.60111427,0.79916324,-0.79916324,0.60111427,697.58392,205.38399)"
         id="g4727">
        <path
           style="fill:#0a0a87;fill-opacity:1;fill-rule:evenodd;stroke:#0a0a87;stroke-width:1px;stroke-linecap:butt;stroke-linejoin:miter;stroke-opacity:1"
           d="m 284.19007,893.0928 14.84296,-5.44874 9.3567,11.72396 -8.60516,13.26473 z"
           id="path4729"
           inkscape:connector-curvature="0" />
        <path
           sodipodi:open="true"
           style="fill:#0a0a87;fill-opacity:1;stroke:#0a0a87;stroke-width:6.67454052;stroke-linecap:butt;stroke-linejoin:round;stroke-miterlimit:4;stroke-dasharray:none;stroke-opacity:1"
           id="path4731"
           sodipodi:type="arc"
           sodipodi:cx="-978.19482"
           sodipodi:cy="23.256214"
           sodipodi:rx="77.869637"
           sodipodi:ry="77.869637"
           sodipodi:start="0.86940326"
           sodipodi:end="1.356307"
           d="m -927.94691,82.744256 a 77.869637,77.869637 0 0 1 -33.67348,16.597229"
           transform="matrix(-0.21320253,-0.97700803,0.97700803,-0.21320253,0,0)" />
      </g>
      <g
         style="fill:#0a0a87;fill-opacity:1;stroke:#0a0a87;stroke-opacity:1"
         id="g4733"
         transform="matrix(-0.83294453,0.55335669,-0.55335669,-0.83294453,813.58407,1616.5897)">
        <path
           inkscape:connector-curvature="0"
           id="path4735"
           d="m 284.19007,893.0928 14.84296,-5.44874 9.3567,11.72396 -8.60516,13.26473 z"
           style="fill:#0a0a87;fill-opacity:1;fill-rule:evenodd;stroke:#0a0a87;stroke-width:1px;stroke-linecap:butt;stroke-linejoin:miter;stroke-opacity:1" />
        <path
           transform="matrix(-0.21320253,-0.97700803,0.97700803,-0.21320253,0,0)"
           d="m -927.94691,82.744256 a 77.869637,77.869637 0 0 1 -33.67348,16.597229"
           sodipodi:end="1.356307"
           sodipodi:start="0.86940326"
           sodipodi:ry="77.869637"
           sodipodi:rx="77.869637"
           sodipodi:cy="23.256214"
           sodipodi:cx="-978.19482"
           sodipodi:type="arc"
           id="path4737"
           style="fill:#0a0a87;fill-opacity:1;stroke:#0a0a87;stroke-width:6.67454052;stroke-linecap:butt;stroke-linejoin:round;stroke-miterlimit:4;stroke-dasharray:none;stroke-opacity:1"
           sodipodi:open="true" />
      </g>
      <g
         style="fill:#0a0a87;fill-opacity:1;stroke:#0a0a87;stroke-opacity:1"
         transform="matrix(1.0677366,-0.99533633,0.99533633,1.0677366,-1108.8401,235.59239)"
         id="g4745">
        <path
           inkscape:connector-curvature="0"
           id="path4747"
           d="m 284.19007,893.0928 14.84296,-5.44874 9.3567,11.72396 -8.60516,13.26473 z"
           style="fill:#0a0a87;fill-opacity:1;fill-rule:evenodd;stroke:#0a0a87;stroke-width:1px;stroke-linecap:butt;stroke-linejoin:miter;stroke-opacity:1" />
        <path
           transform="matrix(-0.21320253,-0.97700803,0.97700803,-0.21320253,0,0)"
           d="m -927.94691,82.744256 a 77.869637,77.869637 0 0 1 -33.67348,16.597229"
           sodipodi:end="1.356307"
           sodipodi:start="0.86940326"
           sodipodi:ry="77.869637"
           sodipodi:rx="77.869637"
           sodipodi:cy="23.256214"
           sodipodi:cx="-978.19482"
           sodipodi:type="arc"
           id="path4749"
           style="fill:#0a0a87;fill-opacity:1;stroke:#0a0a87;stroke-width:6.67454052;stroke-linecap:butt;stroke-linejoin:round;stroke-miterlimit:4;stroke-dasharray:none;stroke-opacity:1"
           sodipodi:open="true" />
      </g>
      <g
         style="fill:#0a0a87;fill-opacity:1;stroke:#0a0a87;stroke-opacity:1"
         id="g4751"
         transform="matrix(0.08840646,0.99608461,-0.99608461,0.08840646,1015.4226,658.51497)">
        <path
           style="fill:#0a0a87;fill-opacity:1;fill-rule:evenodd;stroke:#0a0a87;stroke-width:1px;stroke-linecap:butt;stroke-linejoin:miter;stroke-opacity:1"
           d="m 284.19007,893.0928 14.84296,-5.44874 9.3567,11.72396 -8.60516,13.26473 z"
           id="path4753"
           inkscape:connector-curvature="0" />
        <path
           sodipodi:open="true"
           style="fill:#0a0a87;fill-opacity:1;stroke:#0a0a87;stroke-width:6.67454052;stroke-linecap:butt;stroke-linejoin:round;stroke-miterlimit:4;stroke-dasharray:none;stroke-opacity:1"
           id="path4755"
           sodipodi:type="arc"
           sodipodi:cx="-978.19482"
           sodipodi:cy="23.256214"
           sodipodi:rx="77.869637"
           sodipodi:ry="77.869637"
           sodipodi:start="0.86940326"
           sodipodi:end="1.356307"
           d="m -927.94691,82.744256 a 77.869637,77.869637 0 0 1 -33.67348,16.597229"
           transform="matrix(-0.21320253,-0.97700803,0.97700803,-0.21320253,0,0)" />
      </g>
      <g
         style="fill:#0a0a87;fill-opacity:1;stroke:#0a0a87;stroke-opacity:1"
         id="g4757"
         transform="matrix(-1.0464845,-1.0661157,1.0661157,-1.0464845,-623.55204,2216.9575)">
        <path
           inkscape:connector-curvature="0"
           id="path4759"
           d="m 284.19007,893.0928 14.84296,-5.44874 9.3567,11.72396 -8.60516,13.26473 z"
           style="fill:#0a0a87;fill-opacity:1;fill-rule:evenodd;stroke:#0a0a87;stroke-width:1px;stroke-linecap:butt;stroke-linejoin:miter;stroke-opacity:1" />
        <path
           transform="matrix(-0.21320253,-0.97700803,0.97700803,-0.21320253,0,0)"
           d="m -927.94691,82.744256 a 77.869637,77.869637 0 0 1 -33.67348,16.597229"
           sodipodi:end="1.356307"
           sodipodi:start="0.86940326"
           sodipodi:ry="77.869637"
           sodipodi:rx="77.869637"
           sodipodi:cy="23.256214"
           sodipodi:cx="-978.19482"
           sodipodi:type="arc"
           id="path4761"
           style="fill:#0a0a87;fill-opacity:1;stroke:#0a0a87;stroke-width:6.67454052;stroke-linecap:butt;stroke-linejoin:round;stroke-miterlimit:4;stroke-dasharray:none;stroke-opacity:1"
           sodipodi:open="true" />
      </g>
      <circle
         style="fill:#0a0a87;fill-opacity:1;stroke:#0a0a87;stroke-width:1.31081617;stroke-linecap:butt;stroke-linejoin:round;stroke-miterlimit:4;stroke-dasharray:none;stroke-opacity:1"
         id="circle4763"
         cx="97.378128"
         cy="975.56573"
         r="16.385202" />
      <path
         inkscape:connector-curvature="0"
         id="path4779"
         d="m 29.85836,900.15026 c 67.9328,75.50891 67.9328,75.50891 67.9328,75.50891"
         style="fill:#0a0a87;fill-opacity:1;fill-rule:evenodd;stroke:#0a0a87;stroke-width:2.99999952;stroke-linecap:butt;stroke-linejoin:miter;stroke-miterlimit:4;stroke-dasharray:none;stroke-opacity:1" />
      <path
         inkscape:connector-curvature="0"
         id="path4781"
         d="m 151.32916,982.98277 c -51.0127,-6.31345 -51.0127,-6.31345 -51.0127,-6.31345 l 0,0 0,0"
         style="fill:#0a0a87;fill-opacity:1;fill-rule:evenodd;stroke:#0a0a87;stroke-width:2.99999952;stroke-linecap:butt;stroke-linejoin:miter;stroke-miterlimit:4;stroke-dasharray:none;stroke-opacity:1" />
      <path
         inkscape:connector-curvature="0"
         id="path4783"
         d="m 99.55886,977.67947 c -28.2842,50.50773 -28.2842,50.50773 -28.2842,50.50773"
         style="fill:#0a0a87;fill-opacity:1;fill-rule:evenodd;stroke:#0a0a87;stroke-width:2.99999952;stroke-linecap:butt;stroke-linejoin:miter;stroke-miterlimit:4;stroke-dasharray:none;stroke-opacity:1" />
      <path
         inkscape:connector-curvature="0"
         id="path4785"
         d="m 100.31646,979.1947 c 43.4366,52.7805 43.1841,52.7805 43.1841,52.7805"
         style="fill:#0a0a87;fill-opacity:1;fill-rule:evenodd;stroke:#0a0a87;stroke-width:2.99999952;stroke-linecap:butt;stroke-linejoin:miter;stroke-miterlimit:4;stroke-dasharray:none;stroke-opacity:1" />
      <path
         inkscape:connector-curvature="0"
         id="path4787"
         d="m 100.82156,907.72641 c -1.2627,67.93276 -1.2627,67.93276 -1.2627,67.93276 l 0,-0.25254 -66.165,-14.14215"
         style="fill:none;fill-opacity:1;fill-rule:evenodd;stroke:#0a0a87;stroke-width:4.99999952;stroke-linecap:butt;stroke-linejoin:miter;stroke-miterlimit:4;stroke-dasharray:none;stroke-opacity:1" />
    </g>
    <g
       transform="matrix(0.56698155,0,0,0.56698155,-1.6113281,919.70155)"
       style="font-style:normal;font-variant:normal;font-weight:bold;font-stretch:normal;font-size:56.25px;line-height:125%;font-family:Laksaman;-inkscape-font-specification:'Laksaman, Bold';text-align:start;letter-spacing:0px;word-spacing:0px;writing-mode:lr-tb;text-anchor:start;fill:#000000;fill-opacity:1;stroke:none;stroke-width:1px;stroke-linecap:butt;stroke-linejoin:miter;stroke-opacity:1"
       id="flowRoot5487">
      <path
         d="m 15.675781,213.75266 q 0,4.725 2.5875,7.81875 2.5875,3.0375 6.975,3.0375 4.21875,0 8.2125,-2.475 l 1.85625,4.3875 q -4.1625,2.5875 -9.9,2.5875 -6.75,0 -10.96875,-4.275 -4.1625,-4.275 -4.1625,-11.08125 0,-6.80625 4.1625,-11.025 4.21875,-4.275 10.96875,-4.275 5.7375,0 9.9,2.53125 l -1.85625,4.3875 q -3.9375,-2.41875 -8.2125,-2.41875 -4.3875,0 -6.975,3.09375 -2.5875,3.0375 -2.5875,7.70625 z"
         id="path5515"
         inkscape:connector-curvature="0" />
      <path
         d="m 70.096777,213.75266 q 0,6.46875 -4.3875,10.85625 -4.3875,4.3875 -10.85625,4.3875 -6.46875,0 -10.85625,-4.3875 -4.3875,-4.3875 -4.3875,-10.85625 0,-6.4125 4.3875,-10.85625 4.3875,-4.44375 10.85625,-4.44375 6.46875,0 10.85625,4.44375 4.3875,4.44375 4.3875,10.85625 z m -15.24375,10.74375 q 4.3875,0 7.14375,-3.09375 2.8125,-3.09375 2.8125,-7.65 0,-4.55625 -2.8125,-7.65 -2.75625,-3.09375 -7.14375,-3.09375 -4.3875,0 -7.2,3.09375 -2.8125,3.09375 -2.8125,7.65 0,4.55625 2.8125,7.65 2.8125,3.09375 7.2,3.09375 z"
         id="path5517"
         inkscape:connector-curvature="0" />
      <path
         d="m 89.060937,228.99641 q -12.6,-0.675 -12.6,-15.46875 l 0,-27.84375 5.34375,0 0,26.6625 q 0,5.9625 1.63125,8.775 1.6875,2.75625 6.24375,3.0375 l -0.61875,4.8375 z"
         id="path5519"
         inkscape:connector-curvature="0" />
      <path
         d="m 107.07852,228.99641 q -12.600004,-0.675 -12.600004,-15.46875 l 0,-27.84375 5.34375,0 0,26.6625 q 0,5.9625 1.631254,8.775 1.6875,2.75625 6.24375,3.0375 l -0.61875,4.8375 z"
         id="path5521"
         inkscape:connector-curvature="0" />
      <path
         d="m 120.65234,229.10891 q -4.33125,0 -7.25625,-2.3625 -2.925,-2.3625 -2.925,-6.3 0,-10.6875 19.2375,-10.96875 -0.84375,-6.35625 -6.975,-6.35625 -4.66875,0 -10.06875,2.08125 l -0.5625,-4.78125 q 5.7375,-1.6875 10.9125,-1.6875 11.98125,0 11.98125,12.31875 l 0,9.5625 q 0,3.20625 1.18125,7.425 l -4.95,1.06875 -0.84375,-3.76875 q -4.3875,3.76875 -9.73125,3.76875 z m 9.05625,-9.9 0,-5.11875 q -13.8375,0.28125 -13.8375,5.85 0,4.5 5.00625,4.5 2.925,0 5.85,-1.51875 2.98125,-1.575 2.98125,-3.7125 z"
         id="path5523"
         inkscape:connector-curvature="0" />
      <path
         d="m 173.9624,213.35891 q 0,6.6375 -4.21875,11.19375 -4.21875,4.55625 -10.575,4.55625 -6.3,0 -10.2375,-3.9375 0,2.1375 -0.28125,3.15 l -5.0625,0 q 0.3375,-4.1625 0.3375,-7.70625 l 0,-34.93125 5.34375,0 0,16.7625 q 3.99375,-3.99375 10.35,-3.99375 6.13125,0 10.2375,4.33125 4.10625,4.33125 4.10625,10.575 z m -15.24375,11.08125 q 4.78125,0 7.36875,-2.98125 2.64375,-3.0375 2.64375,-8.1 0,-4.55625 -2.64375,-7.5375 -2.64375,-2.98125 -7.03125,-2.98125 -3.4875,0 -6.6375,2.41875 -3.15,2.3625 -3.15,5.56875 l 0,6.58125 q 0,3.375 2.7,5.23125 2.75625,1.8 6.75,1.8 z"
         id="path5525"
         inkscape:connector-curvature="0" />
      <path
         d="m 208.8541,213.75266 q 0,6.46875 -4.3875,10.85625 -4.3875,4.3875 -10.85625,4.3875 -6.46875,0 -10.85625,-4.3875 -4.3875,-4.3875 -4.3875,-10.85625 0,-6.4125 4.3875,-10.85625 4.3875,-4.44375 10.85625,-4.44375 6.46875,0 10.85625,4.44375 4.3875,4.44375 4.3875,10.85625 z m -15.24375,10.74375 q 4.3875,0 7.14375,-3.09375 2.8125,-3.09375 2.8125,-7.65 0,-4.55625 -2.8125,-7.65 -2.75625,-3.09375 -7.14375,-3.09375 -4.3875,0 -7.2,3.09375 -2.8125,3.09375 -2.8125,7.65 0,4.55625 2.8125,7.65 2.8125,3.09375 7.2,3.09375 z"
         id="path5527"
         inkscape:connector-curvature="0" />
      <path
         d="m 219.88701,203.17766 q 0.7875,-1.63125 3.20625,-3.0375 2.475,-1.40625 4.725,-1.40625 1.8,0 2.7,0.225 l 0,4.55625 q -0.675,-0.16875 -1.9125,-0.16875 -8.04375,0 -8.04375,9.675 l 0,15.3 -5.34375,0 0,-19.0125 q 0,-6.75 -1.0125,-10.18125 l 4.725,0 q 0.95625,1.575 0.95625,4.05 z"
         id="path5529"
         inkscape:connector-curvature="0" />
      <path
         d="m 244.13867,229.10891 q -4.33125,0 -7.25625,-2.3625 -2.925,-2.3625 -2.925,-6.3 0,-10.6875 19.2375,-10.96875 -0.84375,-6.35625 -6.975,-6.35625 -4.66875,0 -10.06875,2.08125 l -0.5625,-4.78125 q 5.7375,-1.6875 10.9125,-1.6875 11.98125,0 11.98125,12.31875 l 0,9.5625 q 0,3.20625 1.18125,7.425 l -4.95,1.06875 -0.84375,-3.76875 q -4.3875,3.76875 -9.73125,3.76875 z m 9.05625,-9.9 0,-5.11875 q -13.8375,0.28125 -13.8375,5.85 0,4.5 5.00625,4.5 2.925,0 5.85,-1.51875 2.98125,-1.575 2.98125,-3.7125 z"
         id="path5531"
         inkscape:connector-curvature="0" />
      <path
         d="m 277.76123,229.10891 q -3.99375,0 -6.1875,-2.7 -2.19375,-2.75625 -2.19375,-7.14375 l 0,-15.3 -5.7375,0 0,-4.3875 5.7375,0 0,-7.875 5.34375,-2.30625 0,10.18125 9.225,0 0,4.3875 -9.225,0 0,15.24375 q 0,5.11875 3.2625,5.11875 2.19375,0 4.725,-0.9 l 0.61875,4.44375 q -2.925,1.2375 -5.56875,1.2375 z"
         id="path5533"
         inkscape:connector-curvature="0" />
      <path
         d="m 294.28027,228.32141 -5.34375,0 0,-28.74375 5.34375,0 0,28.74375 z m -2.8125,-41.2875 q 1.6875,0 2.86875,1.18125 1.2375,1.18125 1.2375,2.86875 0,1.6875 -1.2375,2.86875 -1.18125,1.18125 -2.86875,1.18125 -1.6875,0 -2.86875,-1.18125 -1.18125,-1.18125 -1.18125,-2.86875 0,-1.6875 1.18125,-2.86875 1.18125,-1.18125 2.86875,-1.18125 z"
         id="path5535"
         inkscape:connector-curvature="0" />
      <path
         d="m 331.13193,213.75266 q 0,6.46875 -4.3875,10.85625 -4.3875,4.3875 -10.85625,4.3875 -6.46875,0 -10.85625,-4.3875 -4.3875,-4.3875 -4.3875,-10.85625 0,-6.4125 4.3875,-10.85625 4.3875,-4.44375 10.85625,-4.44375 6.46875,0 10.85625,4.44375 4.3875,4.44375 4.3875,10.85625 z m -15.24375,10.74375 q 4.3875,0 7.14375,-3.09375 2.8125,-3.09375 2.8125,-7.65 0,-4.55625 -2.8125,-7.65 -2.75625,-3.09375 -7.14375,-3.09375 -4.3875,0 -7.2,3.09375 -2.8125,3.09375 -2.8125,7.65 0,4.55625 2.8125,7.65 2.8125,3.09375 7.2,3.09375 z"
         id="path5537"
         inkscape:connector-curvature="0" />
      <path
         d="m 352.23359,198.73391 q 5.85,0 9.225,3.6 3.375,3.6 3.375,9.675 l 0,16.3125 -5.34375,0 0,-16.3125 q 0,-8.83125 -8.04375,-8.83125 -2.86875,0 -5.7375,2.64375 -2.86875,2.64375 -2.86875,5.34375 l 0,17.15625 -5.34375,0 0,-21.15 q 0,-5.2875 -0.675,-7.70625 l 5.00625,0 q 0.5625,1.35 0.5625,3.4875 4.05,-4.21875 9.84375,-4.21875 z"
         id="path5539"
         inkscape:connector-curvature="0" />
    </g>
  </g>
</svg>
